# xmcd
# 
# Track frame offsets:
#   150
#   16452
#   34705
#   56495
#   75759
#   90591
#   106838
#   124444
#   137261
#   153597
#   169899
#   188152
#   209942
#   229206
#   244038
#   260285
#   277891
#   290708
# 
# Disc length: 4093 seconds
# 
# Revision: 8
# Processed by: cddbd v1.5.2PL0 Copyright (c) Steve Scherf et al.
# Submitted via: Synapstar 1.0 
# 
DISCID=f70ffb12
DTITLE=Various Artist - PHM 20816-5
DYEAR=2008
DGENRE=Country
TTITLE0=Mariah Carey - Touch My Body
TTITLE1=Jonas Brothers - When You Look Me in The Eyes
TTITLE2=LupeFiascoft Matthew Santos - Superstar
TTITLE3=Enur Ft Naasja and Mims - Calabria 2008
TTITLE4=Natasha Bedingfield - Pocketful Of Sunshine
TTITLE5=Ferras - Hollywood's Not America
TTITLE6=Simple Plan - Your Love Is A Lie
TTITLE7=Panic At The Disco - Nine In The Afternoon
TTITLE8=Baby Bash Ft Sean Kingston - What Is It
TTITLE9=Mariah Carey - Touch My Body - Vocal
TTITLE10=Jonas Brothers - When You Look Me In The Eyes - Vocal
TTITLE11=Lupe Fiasco Ft Matthew Santos - Superstar - Vocal
TTITLE12=Enur Ft Natasja and Mims - Calabria 2008 - Vocal
TTITLE13=Natasha Bedingford - Pocketful Of Sunshine - Vocal
TTITLE14=Ferras - Hollywood's Not America - Vocal
TTITLE15=Simple Plan - Your Love Is A Lie - Vocal
TTITLE16=Panic At The Disco - Nine In The Afternoon - Vocal
TTITLE17=Baby Bash Ft Sean Kingston - What Is It - Vocal
EXTD=MediaType: Karaoke CD+G Producer: Pop Hits Monthly
EXTT0=
EXTT1=
EXTT2=
EXTT3=
EXTT4=
EXTT5=
EXTT6=
EXTT7=
EXTT8=
EXTT9=
EXTT10=
EXTT11=
EXTT12=
EXTT13=
EXTT14=
EXTT15=
EXTT16=
EXTT17=
PLAYORDER=
